<svg id="Layer_1" data-name="Layer 1" xmlns="http://www.w3.org/2000/svg" viewBox="0 0 3000 3000"><defs><style>.cls-1{fill:#000c26;}.cls-2{opacity:0.4;}.cls-3{fill:#001a55;}.cls-4{fill:#012072;}.cls-5{fill:#0037be;}.cls-6{fill:#0137c0;}.cls-7{fill:#8cd8bf;}.cls-8{fill:#f69e1d;}.cls-9{fill:#022073;}.cls-10{fill:#e7a170;}.cls-11{fill:#00b1ef;}.cls-12{font-size:354.85px;fill:#fff;font-family:ProximaNovaA-Bold, Proxima Nova Alt;font-weight:700;}.cls-13{letter-spacing:-0.03em;}.cls-14{letter-spacing:-0.07em;}.cls-15{letter-spacing:0em;}.cls-16{fill:#f49f1c;}</style></defs><rect class="cls-1" width="3000" height="2999.97"/><g class="cls-2"><path class="cls-3" d="M316.82,1498.84l2678.3,1501.58q-872.08-1501.59,0-3000Z" transform="translate(0.21 -0.42)"/><path class="cls-4" d="M9.79,776.56,2194.9,2895.88Q1753.95,1232.74,2995.12.42" transform="translate(0.21 -0.42)"/><path class="cls-5" d="M1348.94,2078.56l764.3,427.67Q1902.57,1085.43,2995.12.42L594.45,1346.78Z" transform="translate(0.21 -0.42)"/></g><rect class="cls-6" x="752.96" y="331.53" width="180.8" height="180.8"/><rect class="cls-7" x="752.96" y="585.44" width="180.8" height="180.8"/><rect class="cls-8" x="752.96" y="839.68" width="180.8" height="180.8"/><rect class="cls-9" x="1076.03" y="331.53" width="180.8" height="180.8"/><rect class="cls-10" x="1076.03" y="585.44" width="180.8" height="180.8"/><rect class="cls-6" x="1399.1" y="331.53" width="180.8" height="180.8"/><rect class="cls-7" x="1722.17" y="331.53" width="180.8" height="180.8"/><rect class="cls-8" x="2045.24" y="331.53" width="180.8" height="180.8"/><path class="cls-11" d="M2297,116.24H658.56V1353.52h368.85v-.66H2319.68V116.24ZM981.63,1307.42H704.34V296.05H981.63Zm0-1057.14H704.34V162H981.63ZM1304.7,1307.09H1027.41v-1011H1304.7Zm0-1056.81H1027.41V162H1304.7ZM1673.55,162h277.29v88.26H1673.55Zm-323.07,0h277.29v88.26H1350.48Zm277.29,1145.07H1350.48v-1011h277.29v1011Zm323.07,0H1673.55v-1011h277.29v1011Zm323.07,0h-277.3v-1011h277.3Zm0-1056.81h-277.3V162h277.3Z" transform="translate(0.21 -0.42)"/><text class="cls-12" transform="translate(80.26 1833.44)"><tspan class="cls-13">A</tspan><tspan x="230.65" y="0">GILE IN </tspan><tspan class="cls-13" x="1511.27" y="0">A</tspan><tspan x="1741.92" y="0">CTION</tspan></text><text class="cls-12" transform="translate(212.61 2399.92)">BILL R<tspan class="cls-14" x="1017.34" y="0">A</tspan><tspan class="cls-15" x="1236.28" y="0">YMOND</tspan></text><rect class="cls-16" x="374.95" y="1989.77" width="2228.77" height="28.66"/></svg>