<svg id="Layer_1" data-name="Layer 1" xmlns="http://www.w3.org/2000/svg" viewBox="0 0 54.55 69.26"><defs><style>.cls-1{fill:#fff;stroke:#000;stroke-miterlimit:10;}</style></defs><path class="cls-1" d="M79.21,125.78q-2.46-2.49-2.46-7.48V70c0-3.31.82-5.81,2.46-7.48S83.33,60,86.62,60h15.12a18.24,18.24,0,0,1,3.14.24,7.79,7.79,0,0,1,2.49.89A11.22,11.22,0,0,1,109.73,63l17.54,17.87a12.46,12.46,0,0,1,1.93,2.46,7.59,7.59,0,0,1,.87,2.57,22.3,22.3,0,0,1,.23,3.47V118.3c0,3.31-.83,5.8-2.47,7.46s-4.11,2.5-7.4,2.5H86.62Q81.69,128.26,79.21,125.78Zm41-2.64a4.45,4.45,0,0,0,5-4.94V89.61H107a5.3,5.3,0,0,1-6-6V65.13H86.87a5,5,0,0,0-3.74,1.3,5.05,5.05,0,0,0-1.26,3.66V118.2a4.45,4.45,0,0,0,5,4.94ZM91.07,98.4a2,2,0,0,0-1.43.55,1.89,1.89,0,0,0-.57,1.39,1.91,1.91,0,0,0,.57,1.4,1.94,1.94,0,0,0,1.43.57h24.17a1.85,1.85,0,0,0,1.38-.57,1.94,1.94,0,0,0,.56-1.4,1.92,1.92,0,0,0-.56-1.39,1.87,1.87,0,0,0-1.38-.55Zm0,11.11a1.95,1.95,0,0,0-2,2,1.82,1.82,0,0,0,.57,1.36,2,2,0,0,0,1.43.55h24.17a1.87,1.87,0,0,0,1.38-.55,1.85,1.85,0,0,0,.56-1.36,2,2,0,0,0-.56-1.43,1.85,1.85,0,0,0-1.38-.57ZM124.18,84.8,105.85,66.11V83a1.92,1.92,0,0,0,.4,1.37,1.83,1.83,0,0,0,1.35.41Z" transform="translate(-76.25 -59.5)"/></svg>