<?xml version="1.0" encoding="utf-8"?>
<!-- Generator: Adobe Illustrator 24.1.2, SVG Export Plug-In . SVG Version: 6.00 Build 0)  -->
<svg version="1.1" id="Layer_1" xmlns="http://www.w3.org/2000/svg" xmlns:xlink="http://www.w3.org/1999/xlink" x="0px" y="0px"
	 viewBox="0 0 52.6 65" style="enable-background:new 0 0 52.6 65;" xml:space="preserve">
<style type="text/css">
	.st0{fill:#FFFFFF;stroke:#000000;stroke-miterlimit:10;}
</style>
<path class="st0" d="M3.2,35.7c-0.9-0.8-1.4-2-1.4-3.2c0-1.2,0.5-2.4,1.4-3.2c0.8-0.9,2-1.4,3.2-1.4c2.5,0,4.6,2,4.6,4.6
	C11,35,9,37,6.4,37C5.2,37,4.1,36.5,3.2,35.7z M16.7,43.2c0.2-0.7,0.5-1.4,1-2c0.9-1.2,1.7-2.5,2.1-4c0.5-1.5,0.7-3.1,0.7-4.7
	c0-1.6-0.2-3.1-0.7-4.7c-0.5-1.4-1.2-2.8-2.1-4c-0.4-0.6-0.8-1.3-0.9-2c-0.1-0.7,0.1-1.4,0.5-1.8c0.9-1.1,2.5-1.2,3.5-0.3
	c0.2,0.1,0.3,0.3,0.5,0.5c1.4,1.7,2.5,3.6,3.2,5.7c1.5,4.3,1.5,8.9,0,13.2c-0.7,2.1-1.8,4-3.2,5.7c-0.8,1.2-2.4,1.4-3.6,0.6
	c-0.2-0.1-0.3-0.2-0.4-0.4C16.7,44.6,16.5,43.9,16.7,43.2L16.7,43.2z M25.4,52.1c0.1-0.7,0.5-1.4,1-2c2.1-2.3,3.8-5.1,4.9-8
	c1.1-3,1.7-6.3,1.7-9.5c0-3.3-0.5-6.5-1.7-9.6c-1.1-3-2.7-5.7-4.9-8c-0.5-0.6-0.9-1.3-1-2c-0.1-0.7,0.1-1.4,0.6-1.9
	c0.5-0.6,1.2-0.9,1.9-0.9c0.8,0,1.6,0.4,2.1,1c1.7,1.9,3.2,3.9,4.4,6.2c1.2,2.3,2.1,4.7,2.8,7.2c0.6,2.6,0.9,5.2,0.9,7.9
	c0,3.9-0.7,7.9-2.1,11.5c-1.4,3.6-3.4,6.9-6,9.7c-0.5,0.6-1.3,1-2.1,1c-0.7,0-1.4-0.3-1.9-0.9C25.5,53.4,25.3,52.8,25.4,52.1
	L25.4,52.1z M34.4,60.5c0.1-0.8,0.5-1.5,1-2c3.2-3.4,5.8-7.4,7.5-11.7c1.8-4.5,2.7-9.3,2.6-14.1c0-4.9-0.8-9.7-2.6-14.2
	C41.2,14,38.6,10,35.4,6.6c-0.5-0.5-0.9-1.2-1-1.9C34.3,4,34.5,3.3,35,2.8C35.4,2.3,36.1,2,36.8,2c0.8,0,1.5,0.3,2,0.9
	c3.7,3.9,6.7,8.5,8.6,13.5c4.1,10.4,4.1,22,0,32.4c-2,5-4.9,9.6-8.6,13.5c-0.5,0.6-1.2,0.9-2,0.9c-0.7,0-1.4-0.3-1.8-0.9
	C34.5,61.8,34.3,61.1,34.4,60.5L34.4,60.5z"/>
</svg>
