<svg id="Layer_1" data-name="Layer 1" xmlns="http://www.w3.org/2000/svg" viewBox="0 0 250 250"><path d="M98.57,145.24a7.54,7.54,0,0,1-1.88-5.58V110.34a7.54,7.54,0,0,1,1.88-5.58c1.26-1.24,3.14-1.86,5.66-1.86h41.54q3.79,0,5.67,1.86t1.87,5.58v29.32q0,3.72-1.87,5.58t-5.67,1.86H104.23C101.71,147.1,99.83,146.48,98.57,145.24ZM135.31,125a1.47,1.47,0,0,0-.75-1.32l-14.12-8.36a1.87,1.87,0,0,0-1.64-.15,1.19,1.19,0,0,0-.84,1.21v17.21a1.24,1.24,0,0,0,.81,1.24,1.75,1.75,0,0,0,1.67-.18l14.12-8.31A1.47,1.47,0,0,0,135.31,125Z"/></svg>