<svg id="Layer_1" data-name="Layer 1" xmlns="http://www.w3.org/2000/svg" viewBox="0 0 3000 3000"><defs><style>.cls-1{fill:#000c26;}.cls-2{opacity:0.4;}.cls-3{fill:#001a55;}.cls-4{fill:#012072;}.cls-5{fill:#0037be;}.cls-6{fill:#0137c0;}.cls-7{fill:#8cd8bf;}.cls-8{fill:#f69e1d;}.cls-9{fill:#022073;}.cls-10{fill:#e7a170;}.cls-11{fill:#00b1ef;}.cls-12{font-size:354.85px;}.cls-12,.cls-17{fill:#fff;font-family:ProximaNovaA-Bold, Proxima Nova Alt;font-weight:700;}.cls-13{letter-spacing:-0.03em;}.cls-14{letter-spacing:-0.07em;}.cls-15{letter-spacing:0em;}.cls-16{fill:#f49f1c;}.cls-17{font-size:223.12px;}.cls-18{letter-spacing:-0.01em;}</style></defs><rect class="cls-1" width="3000" height="3000"/><g class="cls-2"><path class="cls-3" d="M322.68,1498.51,2999.79,2999.42q-871.7-1500.92,0-2998.66Z" transform="translate(-0.33 -0.42)"/><path class="cls-4" d="M15.79,776.55,2199.92,2894.93Q1759.17,1232.53,2999.79.76" transform="translate(-0.33 -0.42)"/><path class="cls-5" d="M1354.35,2078l764,427.48Q1907.73,1085.28,2999.79.76L600.18,1346.51Z" transform="translate(-0.33 -0.42)"/></g><rect class="cls-6" x="763.29" y="343.53" width="180.8" height="180.8"/><rect class="cls-7" x="763.29" y="597.44" width="180.8" height="180.8"/><rect class="cls-8" x="763.29" y="851.68" width="180.8" height="180.8"/><rect class="cls-9" x="1086.36" y="343.53" width="180.8" height="180.8"/><rect class="cls-10" x="1086.36" y="597.44" width="180.8" height="180.8"/><rect class="cls-6" x="1409.43" y="343.53" width="180.8" height="180.8"/><rect class="cls-7" x="1732.5" y="343.53" width="180.8" height="180.8"/><rect class="cls-8" x="2055.57" y="343.53" width="180.8" height="180.8"/><path class="cls-11" d="M2307.84,128.24H669.44V1365.52h368.84v-.66H2330.56V128.24ZM992.51,1319.42H715.21V308.05h277.3Zm0-1057.14H715.21V174h277.3Zm323.07,1056.81h-277.3v-1011h277.3Zm0-1056.81h-277.3V174h277.3ZM1684.42,174h277.3v88.26h-277.3Zm-323.07,0h277.3v88.26h-277.3Zm277.3,1145.07h-277.3v-1011h277.3v1011Zm323.07,0h-277.3v-1011h277.3v1011Zm323.06,0H2007.49v-1011h277.29Zm0-1056.81H2007.49V174h277.29Z" transform="translate(-0.33 -0.42)"/><text class="cls-12" transform="translate(90.59 1754.44)"><tspan class="cls-13">A</tspan><tspan x="230.65" y="0">GILE IN </tspan><tspan class="cls-13" x="1511.27" y="0">A</tspan><tspan x="1741.92" y="0">CTION</tspan></text><text class="cls-12" transform="translate(222.94 2721.92)">BILL R<tspan class="cls-14" x="1017.34" y="0">A</tspan><tspan class="cls-15" x="1236.28" y="0">YMOND</tspan></text><rect class="cls-16" x="386.75" y="2284.44" width="825.84" height="28.66"/><text class="cls-17" transform="translate(1221.68 2357.64)">WITH</text><rect class="cls-16" x="1800.59" y="2284.52" width="812" height="28.66"/><text class="cls-12" transform="translate(675 2076.93)">PODCA<tspan class="cls-18" x="1234.51" y="0">S</tspan><tspan x="1442.81" y="0">T</tspan></text></svg>