<svg id="Layer_1" data-name="Layer 1" xmlns="http://www.w3.org/2000/svg" viewBox="0 0 1367 189.04"><defs><style>.cls-1{fill:#001a55;}.cls-2{fill:#012072;}.cls-3{fill:#0037be;}.cls-4{fill:#0063f2;}</style></defs><title>Untitled-1</title><path class="cls-1" d="M17.93,92.56,183,184.67q-53.76-92.11,0-184Z" transform="translate(1 -0.34)"/><path class="cls-2" d="M-1,48.25l134.7,130Q106.52,76.23,183,.64Z" transform="translate(1 -0.34)"/><path class="cls-3" d="M81.55,128.12l47.12,26.24Q115.68,67.19,183,.64L35,83.23Z" transform="translate(1 -0.34)"/><path class="cls-3" d="M193.2,60.15q0-17.44,8.1-31.15A57.39,57.39,0,0,1,223.52,7.81,66.28,66.28,0,0,1,255.09.34a62.27,62.27,0,0,1,16.82,2.28,49.16,49.16,0,0,1,13.71,6.44A53.26,53.26,0,0,1,295.8,18a78.3,78.3,0,0,1,7.47,10.38L282.09,39a29.73,29.73,0,0,0-11.21-12,27.18,27.18,0,0,0-15.79-4.78c-10.59,0-19.31,3.53-26.17,10.8-6.85,7.06-10.38,16.2-10.38,27.21s3.53,20.15,10.38,27.41,15.58,10.8,26.17,10.8a27.17,27.17,0,0,0,15.79-4.77,31.11,31.11,0,0,0,11.21-12l21.18,10.18a68.73,68.73,0,0,1-7.47,10.59,61.17,61.17,0,0,1-10.18,8.93,41.88,41.88,0,0,1-13.71,6.44,54.94,54.94,0,0,1-16.82,2.49,68.51,68.51,0,0,1-24.51-4.57,58.47,58.47,0,0,1-19.52-12A52.24,52.24,0,0,1,198,84.45,62.54,62.54,0,0,1,193.2,60.15Z" transform="translate(1 -0.34)"/><path id="_1" data-name="1" class="cls-3" d="M305.77,118.09,350.42,2.21h30.94l44.45,115.88h-28L390.5,98.36H341.07l-7.27,19.73Zm42-41.33h36.14L365.79,26.92Z" transform="translate(1 -0.34)"/><polygon id="_2" data-name="2" class="cls-3" points="437.61 117.76 437.61 1.87 472.08 1.87 500.12 74.35 528.16 1.87 562.84 1.87 562.84 117.76 538.13 117.76 538.13 34.27 505.52 117.76 494.72 117.76 462.12 34.27 462.12 117.76 437.61 117.76"/><path id="_3" data-name="3" class="cls-3" d="M584.9,118.09V2.21h60.85A40,40,0,0,1,660.08,4.7a27.26,27.26,0,0,1,10.59,6.64,31.39,31.39,0,0,1,6,9.35,28.11,28.11,0,0,1,2.29,11c0,7.06-1.87,12.87-5.82,17.65A23.51,23.51,0,0,1,659,58.28a24.48,24.48,0,0,1,15.78,9.55,29.38,29.38,0,0,1,6.23,18.7c0,9.13-2.9,16.82-8.72,22.63s-14.12,8.93-24.71,8.93Zm24.5-21.8h32c4.57,0,8.3-1.25,10.8-3.53,2.7-2.29,3.94-5.61,3.94-9.76a12.1,12.1,0,0,0-3.94-9.35c-2.5-2.49-6.23-3.74-10.8-3.74h-32Zm0-48h31a15.16,15.16,0,0,0,10-3.32,12.06,12.06,0,0,0,3.53-8.93,11.9,11.9,0,0,0-3.53-8.72c-2.5-2.29-5.82-3.33-10-3.33h-31Z" transform="translate(1 -0.34)"/><polygon id="_4" data-name="4" class="cls-3" points="700.75 117.76 700.75 1.87 782.78 1.87 782.78 23.68 725.46 23.68 725.46 47.98 781.33 47.98 781.33 69.58 725.46 69.58 725.46 95.95 782.78 95.95 782.78 117.76 700.75 117.76"/><path id="_5" data-name="5" class="cls-3" d="M800.89,118.09V2.21h54.2c11.84,0,21.19,3.53,28.25,10.59,7.06,6.85,10.8,15.78,10.8,26.79a40.73,40.73,0,0,1-2.29,13.5,28.79,28.79,0,0,1-6,10.18,36.24,36.24,0,0,1-8.1,6.85,35.23,35.23,0,0,1-9.14,3.74l26.17,44.23H866.31L843.67,77H825.6v41.12ZM825.6,55.17h26A18.24,18.24,0,0,0,863.82,51a14.79,14.79,0,0,0,5-11.63q0-7.17-5-11.21C860.7,25.26,856.55,24,851.56,24h-26Z" transform="translate(1 -0.34)"/><polygon id="_6" data-name="6" class="cls-3" points="913.41 117.76 913.41 1.87 947.89 1.87 975.93 74.35 1003.97 1.87 1038.65 1.87 1038.65 117.76 1013.93 117.76 1013.93 34.27 981.33 117.76 970.53 117.76 937.92 34.27 937.92 117.76 913.41 117.76"/><path id="_7" data-name="7" class="cls-3" d="M1048.66,118.09,1093.1,2.21h31l44.65,115.88h-28l-7.27-19.73h-49.63l-7.27,19.73Zm41.74-41.33h36.14l-18.07-49.84Z" transform="translate(1 -0.34)"/><path id="_8" data-name="8" class="cls-3" d="M1171.4,101.69l13.5-19.11A51.53,51.53,0,0,0,1201.1,94a48,48,0,0,0,20.56,4.36q9.66,0,14.95-3.73c3.33-2.5,5.19-5.61,5.19-9.14a8.08,8.08,0,0,0-2.9-6.23,19.2,19.2,0,0,0-7.69-4c-3.11-.83-6.64-1.87-10.59-2.91s-8.1-2.07-12.25-3.11a56.89,56.89,0,0,1-12.26-4.16,52.05,52.05,0,0,1-10.59-6,26.56,26.56,0,0,1-7.48-9.55,33.49,33.49,0,0,1-2.9-13.92c0-10,3.94-18.27,12-24.92C1195.08,3.87,1205.67.54,1219,.54c18.48,0,33.64,5.4,45.07,16l-13.5,18.27a46.69,46.69,0,0,0-15.79-9.34,53.2,53.2,0,0,0-17.86-3.33c-5.19,0-9.14,1-12,3.12a9.65,9.65,0,0,0-4.37,8.31,7.51,7.51,0,0,0,2.91,5.6,20.75,20.75,0,0,0,7.48,3.53c3.32,1,6.85,1.87,10.8,2.91s8.1,1.87,12,2.91A66.37,66.37,0,0,1,1246,52.88a53.73,53.73,0,0,1,10.59,6.44,27.14,27.14,0,0,1,7.48,9.76,33.26,33.26,0,0,1,2.7,13.92q0,16.5-11.84,26.79c-7.89,6.85-19.32,10.38-34.27,10.38C1200.06,120.17,1183.65,113.94,1171.4,101.69Z" transform="translate(1 -0.34)"/><polygon id="_9" data-name="9" class="cls-3" points="1274.99 23.68 1274.99 1.87 1367 1.87 1367 23.68 1333.36 23.68 1333.36 117.76 1308.85 117.76 1308.85 23.68 1274.99 23.68"/><path class="cls-4" d="M500.43,188.47l19.62-51.09h13.68l19.62,51.09H541l-3.19-8.67h-21.9l-3.19,8.67Zm18.48-18.25h16l-8-21.89Z" transform="translate(1 -0.34)"/><path id="_1-2" data-name="1" class="cls-4" d="M573.64,162.92A26,26,0,0,1,577.29,149a25.21,25.21,0,0,1,9.81-9.12,27.58,27.58,0,0,1,13.69-3.19,23.9,23.9,0,0,1,7.07.91,15.49,15.49,0,0,1,5.93,2.51,40.07,40.07,0,0,1,4.56,3.42c1.14,1.37,2.28,2.74,3.42,4.33l-8.9,5a13.24,13.24,0,0,0-5.24-4.79,11.87,11.87,0,0,0-6.84-1.82,15.51,15.51,0,0,0-11.64,4.78c-3,3-4.33,7.08-4.33,11.86s1.37,8.9,4.33,12.09a15.48,15.48,0,0,0,11.64,4.79,11.93,11.93,0,0,0,8.43-3,15.07,15.07,0,0,0,4.79-7.07h-16v-9.58h27.82c0,9.12-2.28,16.19-7.07,21.44-4.56,5-10.94,7.75-19.15,7.75a24.34,24.34,0,0,1-9.81-2,25.06,25.06,0,0,1-8.44-5.25,24,24,0,0,1-5.7-8.21A29.17,29.17,0,0,1,573.64,162.92Z" transform="translate(1 -0.34)"/><polygon id="_2-2" data-name="2" class="cls-4" points="652.65 188.13 652.65 137.04 663.37 137.04 663.37 188.13 652.65 188.13"/><polygon id="_3-2" data-name="3" class="cls-4" points="693.7 188.13 693.7 137.04 704.65 137.04 704.65 178.55 726.09 178.55 726.09 188.13 693.7 188.13"/><polygon id="_4-2" data-name="4" class="cls-4" points="754.14 188.13 754.14 137.04 790.17 137.04 790.17 146.62 765.09 146.62 765.09 157.34 789.49 157.34 789.49 166.92 765.09 166.92 765.09 178.55 790.17 178.55 790.17 188.13 754.14 188.13"/><polygon id="_5-2" data-name="5" class="cls-4" points="838.98 188.13 838.98 137.04 849.7 137.04 849.7 188.13 838.98 188.13"/><polygon id="_6-2" data-name="6" class="cls-4" points="880.49 188.13 880.49 137.04 891.67 137.04 915.16 169.2 915.16 137.04 926.11 137.04 926.11 188.13 915.62 188.13 891.44 154.83 891.44 188.13 880.49 188.13"/><path id="_7-2" data-name="7" class="cls-4" d="M970,188.47l19.61-51.09h13.69L1023,188.47h-12.32l-3.19-8.67H985.55l-3.2,8.67Zm18.47-18.25h16l-8-21.89Z" transform="translate(1 -0.34)"/><path id="_8-2" data-name="8" class="cls-4" d="M1043.25,162.92a27.72,27.72,0,0,1,3.42-13.68,25.74,25.74,0,0,1,9.81-9.35,31.2,31.2,0,0,1,13.91-3.19,26,26,0,0,1,7.53.91,18.24,18.24,0,0,1,5.93,3,17.65,17.65,0,0,1,4.33,3.88,17.09,17.09,0,0,1,3.42,4.56l-9.35,4.56a15.07,15.07,0,0,0-4.79-5.24,13.35,13.35,0,0,0-7.07-2.05,16.54,16.54,0,0,0-11.63,4.56,17.09,17.09,0,0,0-4.34,12.08c0,4.79,1.37,8.9,4.34,12.09a15.8,15.8,0,0,0,11.63,4.79,13.35,13.35,0,0,0,7.07-2.05,15.77,15.77,0,0,0,4.79-5.47l9.35,4.56a17.09,17.09,0,0,1-3.42,4.56,18.56,18.56,0,0,1-4.33,4.1,20.32,20.32,0,0,1-5.93,2.74,25.85,25.85,0,0,1-7.53,1.14,28,28,0,0,1-10.72-2,23.94,23.94,0,0,1-8.67-5.25,22.05,22.05,0,0,1-5.7-8.44A27.17,27.17,0,0,1,1043.25,162.92Z" transform="translate(1 -0.34)"/><polygon id="_9-2" data-name="9" class="cls-4" points="1116.55 146.62 1116.55 137.04 1157.14 137.04 1157.14 146.62 1142.32 146.62 1142.32 188.13 1131.37 188.13 1131.37 146.62 1116.55 146.62"/><polygon id="_10" data-name="10" class="cls-4" points="1184.74 188.13 1184.74 137.04 1195.69 137.04 1195.69 188.13 1184.74 188.13"/><path id="_11" data-name="11" class="cls-4" d="M1225,173.64a28.18,28.18,0,0,1-2-10.72,26.28,26.28,0,0,1,2-10.49,19.46,19.46,0,0,1,5.48-8.44,24.6,24.6,0,0,1,8.44-5.47,32,32,0,0,1,10.72-1.82,28.63,28.63,0,0,1,13.45,3.19,25.1,25.1,0,0,1,9.58,9.35,29.09,29.09,0,0,1,0,27.37,23.63,23.63,0,0,1-9.58,9.35,26.25,26.25,0,0,1-13.45,3.42,27.17,27.17,0,0,1-10.72-2,24.48,24.48,0,0,1-8.44-5.48A20,20,0,0,1,1225,173.64Zm9.13-10.72a18.09,18.09,0,0,0,4.1,12.09,14.64,14.64,0,0,0,11.41,4.79,14.45,14.45,0,0,0,11.17-4.79,19.82,19.82,0,0,0,0-24.17,15.09,15.09,0,0,0-11.17-4.56,15.28,15.28,0,0,0-11.41,4.56A18.08,18.08,0,0,0,1234.15,162.92Z" transform="translate(1 -0.34)"/><polygon id="_12" data-name="12" class="cls-4" points="1305.39 188.13 1305.39 137.04 1316.57 137.04 1340.06 169.2 1340.06 137.04 1351.01 137.04 1351.01 188.13 1340.52 188.13 1316.34 154.83 1316.34 188.13 1305.39 188.13"/></svg>