<svg id="Layer_1" data-name="Layer 1" xmlns="http://www.w3.org/2000/svg" viewBox="0 0 120.78 117.79"><defs><style>.cls-1,.cls-2{fill:#0037be;}.cls-1{fill-rule:evenodd;}</style></defs><title>github-logo</title><path class="cls-1" d="M60.54-.46A60.4,60.4,0,0,0,41.45,117.23c3,.55,4.13-1.31,4.13-2.91,0-1.44-.06-6.2-.08-11.24C28.7,106.73,25.15,96,25.15,96c-2.75-7-6.7-8.83-6.7-8.83-5.48-3.75.41-3.67.41-3.67,6.06.42,9.26,6.22,9.26,6.22,5.38,9.23,14.12,6.56,17.57,5,.54-3.9,2.11-6.57,3.83-8.08C36.11,85.09,22,79.91,22,56.77a23.39,23.39,0,0,1,6.22-16.21c-.62-1.52-2.69-7.66.59-16,0,0,5.07-1.62,16.61,6.19a57.32,57.32,0,0,1,30.24,0C87.2,23,92.26,24.58,92.26,24.58c3.29,8.32,1.22,14.46.59,16a23.3,23.3,0,0,1,6.22,16.21c0,23.19-14.13,28.3-27.58,29.8,2.17,1.87,4.1,5.54,4.1,11.18,0,8.08-.07,14.58-.07,16.57,0,1.61,1.09,3.49,4.15,2.9A60.4,60.4,0,0,0,60.54-.46Z" transform="translate(-0.16 0.46)"/><path class="cls-2" d="M23,86.24c-.13.3-.61.39-1,.18s-.68-.6-.54-.9.6-.4,1-.19.69.61.54.91Zm-.75-.55" transform="translate(-0.16 0.46)"/><path class="cls-2" d="M25.47,89c-.28.26-.85.14-1.23-.28s-.47-1-.18-1.26a1,1,0,0,1,1.24.28c.4.43.47,1,.17,1.26Zm-.57-.62" transform="translate(-0.16 0.46)"/><path class="cls-2" d="M27.86,92.45c-.38.25-1,0-1.35-.52s-.37-1.19,0-1.44,1,0,1.35.5a1.08,1.08,0,0,1,0,1.46Zm0,0" transform="translate(-0.16 0.46)"/><path class="cls-2" d="M31.12,95.81c-.33.36-1,.26-1.56-.24A1.16,1.16,0,0,1,29.22,94a1.17,1.17,0,0,1,1.57.23c.52.49.68,1.18.33,1.55Zm0,0" transform="translate(-0.16 0.46)"/><path class="cls-2" d="M35.62,97.76c-.15.47-.83.68-1.51.48s-1.13-.76-1-1.23.82-.7,1.51-.49,1.13.76,1,1.24Zm0,0" transform="translate(-0.16 0.46)"/><path class="cls-2" d="M40.56,98.12c0,.5-.56.91-1.28.92S38,98.65,38,98.16s.57-.91,1.29-.92,1.31.38,1.31.88Zm0,0" transform="translate(-0.16 0.46)"/><path class="cls-2" d="M45.16,97.34c.08.48-.42,1-1.13,1.11s-1.35-.17-1.44-.65.42-1,1.12-1.13,1.36.17,1.45.67Zm0,0" transform="translate(-0.16 0.46)"/></svg>