<svg id="Layer_1" data-name="Layer 1" xmlns="http://www.w3.org/2000/svg" viewBox="0 0 400 400"><defs><style>.cls-1{fill:#0037be;}.cls-2{fill:#fff;}</style></defs><title>twitter-logo</title><rect class="cls-1" width="400" height="400" rx="50"/><path class="cls-2" d="M153.17,301.26c94.34,0,145.93-78.16,145.93-145.93,0-2.22,0-4.43-.14-6.63a104.36,104.36,0,0,0,25.58-26.56,102.44,102.44,0,0,1-29.45,8.07,51.42,51.42,0,0,0,22.55-28.37,102.58,102.58,0,0,1-32.57,12.45,51.34,51.34,0,0,0-87.4,46.78A145.68,145.68,0,0,1,91.94,107.48,51.34,51.34,0,0,0,107.82,176a51,51,0,0,1-23.23-6.41c0,.21,0,.43,0,.65a51.31,51.31,0,0,0,41.15,50.28,51,51,0,0,1-23.16.88A51.35,51.35,0,0,0,150.48,257a103.76,103.76,0,0,1-75.94,21.24,145.21,145.21,0,0,0,78.63,23" transform="translate(0.46 0.33)"/></svg>